<svg width="76" height="76" viewBox="0 0 76 76" fill="none" xmlns="http://www.w3.org/2000/svg">
<circle cx="38" cy="38" r="38" fill="#704D70"/>
<path d="M37.9128 56.4133C35.6935 56.3749 33.4721 56.2682 31.1653 56.1273C28.2909 55.9502 24.7977 56.6608 22.0535 55.5597C19.3904 54.4928 17.6939 52.8006 15.9441 50.6517C15.0329 49.54 13.6267 48.9745 12.2631 48.5178C10.8995 48.0611 9.47621 47.6408 8.37938 46.7104C7.28255 45.78 6.61463 44.1646 7.242 42.8693C8.78482 39.6877 13.8038 40.7503 13.8145 35.949C13.8145 34.3166 13.0868 32.4878 14.0556 31.1733C14.3841 30.7756 14.7853 30.4439 15.2378 30.196C17.4357 28.841 20.2696 28.9733 22.4504 27.6353C24.913 26.1117 24.4008 23.2288 26.5945 21.2186C27.3271 20.5802 28.1188 20.0129 28.9589 19.5243C34.7034 15.9692 40.6421 16.3021 46.5274 19.6886C49.6749 21.5046 52.4085 24.7609 53.6952 28.141C55.1228 31.9053 52.306 36.0899 54.6768 39.3633C55.2146 40.1059 55.9273 40.7077 56.5099 41.4161C58.9511 44.3823 55.1932 46.2089 53.6525 48.2233C52.417 49.843 52.6069 52.2116 51.4205 53.8675C50.0441 55.7881 47.366 56.1103 44.9995 56.2575C42.569 56.4176 40.2409 56.4538 37.9128 56.4133Z" fill="#845161"/>
<path d="M62.2629 67.4499C55.3286 72.7891 46.8134 75.6666 38.0618 75.6279C29.3103 75.5893 20.8208 72.6368 13.934 67.2365L24.3176 62.369C24.6354 62.2188 24.9453 62.0521 25.2458 61.8697L25.4848 61.7203C25.5702 61.667 25.6534 61.6115 25.7366 61.5539C27.0467 60.6501 28.1203 59.4448 28.8671 58.0393C29.7207 56.4282 30.0023 54.6485 30.0151 52.8347C30.0151 51.8382 29.9746 50.8416 29.949 49.8472C29.949 49.6225 29.9447 49.3984 29.9362 49.175C29.9277 48.4993 29.9205 47.8229 29.9149 47.1457L30.3416 47.3591L31.4513 47.9331L37.9149 49.0321L44.5557 50.163L44.7498 56.7569V56.9852L44.8501 60.3717L47.2977 61.3682L49.2183 62.145L62.2629 67.4499Z" fill="#F5B68C"/>
<path d="M44.7456 55.261C44.1651 55.6195 43.6167 55.7881 43.1366 55.7369C39.9805 55.3976 33.8242 52.9244 29.949 48.3471C29.949 48.1223 29.9447 47.8983 29.9362 47.6749C29.9277 46.9992 29.9205 46.3227 29.9149 45.6456L30.3416 45.859L31.4513 46.433L37.9149 47.5319L44.5556 48.6629L44.7456 55.261Z" fill="#E88870"/>
<path d="M24.5801 43.9384C26.5836 43.9384 28.2077 42.3143 28.2077 40.3108C28.2077 38.3073 26.5836 36.6831 24.5801 36.6831C22.5766 36.6831 20.9524 38.3073 20.9524 40.3108C20.9524 42.3143 22.5766 43.9384 24.5801 43.9384Z" fill="#F5B68C"/>
<path d="M25.8604 43.5116C27.8639 43.5116 29.4881 41.8875 29.4881 39.884C29.4881 37.8805 27.8639 36.2563 25.8604 36.2563C23.8569 36.2563 22.2328 37.8805 22.2328 39.884C22.2328 41.8875 23.8569 43.5116 25.8604 43.5116Z" fill="#E88870"/>
<path d="M49.2354 34.8181C51.7406 43.501 46.4165 53.9956 43.1452 53.9956C38.664 53.9956 27.781 50.4149 25.2779 41.7341C22.7748 33.0533 26.1016 24.4664 32.7167 22.5566C39.3319 20.6467 46.728 26.1373 49.2354 34.8181Z" fill="#F5B68C"/>
<path d="M35.7575 36.6212C37.0592 36.6212 37.0592 38.6228 35.7575 38.6314H35.6978C34.3961 38.6314 34.3961 36.6319 35.6978 36.6212H35.7575Z" fill="#F83600"/>
<path d="M46.4826 35.8018C47.6904 35.8018 47.6904 37.6583 46.4826 37.669H46.4271C45.2194 37.6583 45.2194 35.8125 46.4271 35.8018H46.4826Z" fill="#F83600"/>
<path d="M35.7532 41.6978C37.9924 41.6978 39.8077 39.8826 39.8077 37.6434C39.8077 35.4042 37.9924 33.5889 35.7532 33.5889C33.514 33.5889 31.6988 35.4042 31.6988 37.6434C31.6988 39.8826 33.514 41.6978 35.7532 41.6978Z" stroke="white" stroke-width="0.488389" stroke-miterlimit="10"/>
<path d="M47.0929 41.0576C49.3321 41.0576 51.1473 39.2424 51.1473 37.0032C51.1473 34.764 49.3321 32.9488 47.0929 32.9488C44.8537 32.9488 43.0385 34.764 43.0385 37.0032C43.0385 39.2424 44.8537 41.0576 47.0929 41.0576Z" stroke="white" stroke-width="0.488389" stroke-miterlimit="10"/>
<path d="M40.975 23.2757C40.0574 27.2683 38.0536 30.6569 34.3897 33.1237C30.4398 35.8594 26.2659 37.1782 21.7164 38.0872C21.8316 35.2897 21.5243 31.3547 22.9668 28.858C24.604 26.0883 26.9953 23.8413 29.8615 22.3795C33.0197 20.747 37.9085 19.1466 41.4594 20.2797C41.3615 21.2876 41.1997 22.2883 40.975 23.2757Z" fill="#845161"/>
<path d="M41.3484 35.2235C41.3313 35.296 43.0384 42.1246 43.0384 42.1246H40.371" stroke="#F83600" stroke-width="0.488389" stroke-miterlimit="10"/>
<path d="M43.7938 33.049C45.3026 32.2752 47.0505 32.1088 48.6783 32.5838" stroke="#F83600" stroke-width="0.488389" stroke-miterlimit="10"/>
<path d="M32.0339 33.8322C33.0603 33.3087 34.1895 33.0182 35.3411 32.9813C36.4927 32.9445 37.6382 33.1621 38.696 33.6188" stroke="#F83600" stroke-width="0.488389" stroke-miterlimit="10"/>
<path d="M39.8077 37.6433L43.0385 37.3681" stroke="white" stroke-width="0.488389" stroke-miterlimit="10"/>
<path d="M62.2629 67.4499C55.3286 72.7891 46.8134 75.6666 38.0618 75.6279C29.3103 75.5893 20.8208 72.6367 13.934 67.2365L24.3176 62.369C24.8121 62.1366 25.2867 61.8639 25.7366 61.5539C25.8732 61.46 26.0098 61.3618 26.14 61.2594C27.2701 60.3947 28.2003 59.2963 28.8671 58.0393C29.3712 57.0735 29.7061 56.0284 29.8572 54.9494C30.0079 55.0954 30.1661 55.2336 30.331 55.3634C31.6394 56.3309 33.0594 57.1376 34.5604 57.7662C35.2891 58.0701 36.0343 58.333 36.7925 58.5536C39.0766 59.2196 41.4615 59.4718 43.8344 59.2983C44.163 59.2727 44.4938 59.2407 44.8224 59.2172L44.8544 60.3013V60.3631L47.4364 61.413L62.2629 67.4499Z" fill="url(#paint0_linear_24_13)"/>
<path d="M35.8023 44.5338C35.8315 44.4876 35.8699 44.448 35.9151 44.4174C35.9603 44.3867 36.0113 44.3657 36.065 44.3557C36.1187 44.3457 36.1738 44.3469 36.227 44.3592C36.2802 44.3714 36.3303 44.3946 36.3742 44.4271C36.8181 44.7386 37.6289 45.4002 38.7813 45.6306C40.3518 45.9422 41.7133 45.3148 42.0398 45.7181C42.2233 45.9464 41.9992 46.226 41.5703 46.5717C41.1211 46.908 40.6091 47.151 40.0645 47.2862C39.5198 47.4215 38.9536 47.4462 38.3993 47.3591C36.8885 47.0753 35.7532 45.3255 35.7532 44.7066C35.755 44.6458 35.7719 44.5864 35.8023 44.5338Z" fill="white"/>
<defs>
<linearGradient id="paint0_linear_24_13" x1="13.934" y1="65.2882" x2="62.2629" y2="65.2882" gradientUnits="userSpaceOnUse">
<stop stop-color="#16243F"/>
<stop offset="1" stop-color="#6878B1"/>
</linearGradient>
</defs>
</svg>
