<svg width="299" height="203" viewBox="0 0 299 203" fill="none" xmlns="http://www.w3.org/2000/svg">
<rect x="5.5" y="5.5" width="288" height="192" rx="26.5" fill="#FF3030" stroke="black" stroke-width="11"/>
<path d="M70.024 98.824C70.0453 98.952 70.056 99.08 70.056 99.208C70.0773 99.3147 70.088 99.4427 70.088 99.592C70.088 99.848 70.0133 100.083 69.864 100.296C69.8 100.403 69.7147 100.509 69.608 100.616C69.5013 100.701 69.3733 100.776 69.224 100.84C68.6907 101.139 68.1253 101.245 67.528 101.16C67.2293 101.075 66.9627 100.936 66.728 100.744C66.6853 100.701 66.6533 100.68 66.632 100.68C66.6107 100.659 66.5893 100.627 66.568 100.584C66.5467 100.563 66.5253 100.541 66.504 100.52C66.4827 100.477 66.4507 100.445 66.408 100.424C66.3013 100.317 66.216 100.221 66.152 100.136C66.088 100.029 66.024 99.9227 65.96 99.816C65.9173 99.7093 65.864 99.6133 65.8 99.528C65.7573 99.4213 65.704 99.3147 65.64 99.208C65.5973 99.1227 65.5547 99.048 65.512 98.984C65.4693 98.8987 65.4373 98.8133 65.416 98.728C65.3307 98.536 65.2773 98.3653 65.256 98.216L64.584 96.648C63.112 96.648 61.64 96.6587 60.168 96.68C58.7173 96.68 57.256 96.6693 55.784 96.648L55.112 98.216C55.0693 98.3013 55.0373 98.3867 55.016 98.472C55.016 98.5573 54.9947 98.6427 54.952 98.728C54.9093 98.8133 54.8667 98.8987 54.824 98.984C54.8027 99.048 54.7707 99.1227 54.728 99.208C54.664 99.3147 54.6 99.4213 54.536 99.528C54.4933 99.6133 54.44 99.7093 54.376 99.816C54.3333 99.9227 54.28 100.029 54.216 100.136C54.152 100.221 54.0667 100.317 53.96 100.424C53.9173 100.445 53.8853 100.477 53.864 100.52C53.8427 100.541 53.8213 100.563 53.8 100.584C53.7787 100.627 53.7573 100.659 53.736 100.68C53.7147 100.68 53.6827 100.701 53.64 100.744C53.4053 100.936 53.1387 101.075 52.84 101.16C52.2427 101.245 51.6773 101.139 51.144 100.84C50.9947 100.776 50.8667 100.701 50.76 100.616C50.6533 100.509 50.568 100.403 50.504 100.296C50.3547 100.083 50.28 99.848 50.28 99.592C50.28 99.4427 50.28 99.3147 50.28 99.208C50.3013 99.08 50.3227 98.952 50.344 98.824C50.3867 98.632 50.44 98.44 50.504 98.248C50.568 98.056 50.6 97.96 50.6 97.96L57.256 81.576L57.448 81.064C57.4907 80.936 57.544 80.8187 57.608 80.712C57.672 80.6053 57.7253 80.4773 57.768 80.328C57.8747 80.0507 57.992 79.8053 58.12 79.592C58.184 79.464 58.2587 79.3467 58.344 79.24C58.4293 79.1333 58.5147 79.0267 58.6 78.92C58.728 78.7493 58.9093 78.6107 59.144 78.504C59.4427 78.3973 59.784 78.344 60.168 78.344C60.5733 78.344 60.9253 78.3973 61.224 78.504C61.4587 78.6107 61.64 78.7493 61.768 78.92C61.9173 79.112 62.0773 79.336 62.248 79.592C62.376 79.8053 62.4933 80.0507 62.6 80.328C62.6427 80.4773 62.696 80.6053 62.76 80.712C62.824 80.8187 62.8773 80.936 62.92 81.064L63.112 81.576L69.768 97.96C69.768 97.96 69.8 98.056 69.864 98.248C69.928 98.44 69.9813 98.632 70.024 98.824ZM62.44 90.984C62.1627 90.3653 61.8747 89.7253 61.576 89.064C61.2987 88.4027 61 87.7307 60.68 87.048C60.5947 86.856 60.5093 86.664 60.424 86.472C60.3387 86.2587 60.2533 86.056 60.168 85.864C60.104 86.056 60.0293 86.2587 59.944 86.472C59.8587 86.664 59.7733 86.856 59.688 87.048C59.368 87.7307 59.0587 88.4027 58.76 89.064C58.4827 89.7253 58.2053 90.3653 57.928 90.984L57.352 92.392H63.016L62.44 90.984ZM82.014 78.632C82.4193 78.5253 82.7713 78.5147 83.07 78.6C83.39 78.664 83.6567 78.8027 83.87 79.016C84.1047 79.2293 84.2753 79.496 84.382 79.816C84.51 80.136 84.574 80.488 84.574 80.872C84.5953 81.9387 84.5953 82.7707 84.574 83.368C84.574 83.9653 84.574 84.488 84.574 84.936V94.76C84.574 95.912 84.574 96.872 84.574 97.64C84.574 98.408 84.5313 99.0373 84.446 99.528C84.382 99.9973 84.254 100.349 84.062 100.584C83.8913 100.819 83.6247 100.979 83.262 101.064C82.8993 101.171 82.4193 101.224 81.822 101.224C81.246 101.224 80.5207 101.224 79.646 101.224C77.342 101.224 75.518 100.68 74.174 99.592C72.8513 98.504 72.1473 96.776 72.062 94.408C72.0193 93.384 72.1473 92.4453 72.446 91.592C72.7447 90.7387 73.182 90.0133 73.758 89.416C74.3553 88.7973 75.0807 88.328 75.934 88.008C76.8087 87.6667 77.8007 87.5067 78.91 87.528H80.67V81.8C80.67 81.4587 80.67 81.128 80.67 80.808C80.67 80.4667 80.702 80.1573 80.766 79.88C80.83 79.5813 80.958 79.3253 81.15 79.112C81.342 78.8987 81.63 78.7387 82.014 78.632ZM76.446 96.392C76.894 97.0107 77.7047 97.352 78.878 97.416C79.1127 97.4373 79.3367 97.448 79.55 97.448C79.7633 97.4267 79.9553 97.3947 80.126 97.352C80.318 97.3307 80.4993 97.2987 80.67 97.256V91.336C79.9233 91.208 79.2407 91.1333 78.622 91.112C78.0247 91.0693 77.4273 91.2827 76.83 91.752C76.51 92.008 76.2647 92.3387 76.094 92.744C75.9233 93.128 75.8273 93.544 75.806 93.992C75.7847 94.4187 75.8273 94.8453 75.934 95.272C76.0407 95.6987 76.2113 96.072 76.446 96.392ZM97.139 78.632C97.5443 78.5253 97.8963 78.5147 98.195 78.6C98.515 78.664 98.7817 78.8027 98.995 79.016C99.2297 79.2293 99.4003 79.496 99.507 79.816C99.635 80.136 99.699 80.488 99.699 80.872C99.7203 81.9387 99.7203 82.7707 99.699 83.368C99.699 83.9653 99.699 84.488 99.699 84.936V94.76C99.699 95.912 99.699 96.872 99.699 97.64C99.699 98.408 99.6563 99.0373 99.571 99.528C99.507 99.9973 99.379 100.349 99.187 100.584C99.0163 100.819 98.7497 100.979 98.387 101.064C98.0243 101.171 97.5443 101.224 96.947 101.224C96.371 101.224 95.6457 101.224 94.771 101.224C92.467 101.224 90.643 100.68 89.299 99.592C87.9763 98.504 87.2723 96.776 87.187 94.408C87.1443 93.384 87.2723 92.4453 87.571 91.592C87.8697 90.7387 88.307 90.0133 88.883 89.416C89.4803 88.7973 90.2057 88.328 91.059 88.008C91.9337 87.6667 92.9257 87.5067 94.035 87.528H95.795V81.8C95.795 81.4587 95.795 81.128 95.795 80.808C95.795 80.4667 95.827 80.1573 95.891 79.88C95.955 79.5813 96.083 79.3253 96.275 79.112C96.467 78.8987 96.755 78.7387 97.139 78.632ZM91.571 96.392C92.019 97.0107 92.8297 97.352 94.003 97.416C94.2377 97.4373 94.4617 97.448 94.675 97.448C94.8883 97.4267 95.0803 97.3947 95.251 97.352C95.443 97.3307 95.6243 97.2987 95.795 97.256V91.336C95.0483 91.208 94.3657 91.1333 93.747 91.112C93.1497 91.0693 92.5523 91.2827 91.955 91.752C91.635 92.008 91.3897 92.3387 91.219 92.744C91.0483 93.128 90.9523 93.544 90.931 93.992C90.9097 94.4187 90.9523 94.8453 91.059 95.272C91.1657 95.6987 91.3363 96.072 91.571 96.392ZM106.312 88.872C106.312 89.4693 106.312 90.1413 106.312 90.888C106.333 91.6347 106.344 92.4133 106.344 93.224C106.344 94.0133 106.344 94.8027 106.344 95.592C106.344 96.36 106.333 97.0747 106.312 97.736C106.291 98.056 106.259 98.408 106.216 98.792C106.173 99.1547 106.088 99.496 105.96 99.816C105.832 100.136 105.629 100.403 105.352 100.616C105.096 100.808 104.744 100.893 104.296 100.872C103.635 100.829 103.155 100.541 102.856 100.008C102.579 99.4747 102.419 98.728 102.376 97.768C102.376 97.2773 102.365 96.712 102.344 96.072C102.344 95.432 102.333 94.7813 102.312 94.12C102.312 93.4587 102.312 92.8187 102.312 92.2C102.312 91.56 102.312 90.984 102.312 90.472C102.312 90.1733 102.301 89.8107 102.28 89.384C102.28 88.9573 102.291 88.52 102.312 88.072C102.333 87.624 102.387 87.1973 102.472 86.792C102.557 86.3653 102.696 86.0133 102.888 85.736C103.037 85.5653 103.251 85.4373 103.528 85.352C103.805 85.2453 104.093 85.192 104.392 85.192C104.712 85.192 105.011 85.2453 105.288 85.352C105.587 85.4587 105.8 85.608 105.928 85.8C106.013 85.928 106.077 86.1093 106.12 86.344C106.163 86.5787 106.195 86.8453 106.216 87.144C106.259 87.4213 106.28 87.72 106.28 88.04C106.301 88.3387 106.312 88.616 106.312 88.872ZM105.096 82.408C104.435 82.5787 103.88 82.5147 103.432 82.216C103.005 81.896 102.739 81.4267 102.632 80.808C102.547 80.36 102.579 79.9653 102.728 79.624C102.877 79.2827 103.101 79.0267 103.4 78.856C103.699 78.664 104.04 78.5787 104.424 78.6C104.808 78.6213 105.192 78.7707 105.576 79.048C105.939 79.304 106.195 79.6027 106.344 79.944C106.515 80.2853 106.568 80.616 106.504 80.936C106.461 81.256 106.323 81.5547 106.088 81.832C105.853 82.088 105.523 82.28 105.096 82.408ZM122.788 86.888C122.958 87.2933 122.969 87.7413 122.82 88.232C122.692 88.7227 122.446 89.0427 122.084 89.192C121.892 89.2773 121.636 89.352 121.316 89.416C120.996 89.4587 120.644 89.5013 120.26 89.544C119.897 89.5867 119.534 89.6187 119.172 89.64C118.809 89.6613 118.5 89.672 118.244 89.672C118.265 90.312 118.286 90.9733 118.308 91.656C118.329 92.3173 118.35 92.968 118.372 93.608C118.393 94.248 118.404 94.8667 118.404 95.464C118.404 96.04 118.393 96.5627 118.372 97.032C118.372 97.352 118.372 97.7253 118.372 98.152C118.372 98.5573 118.34 98.952 118.276 99.336C118.233 99.72 118.158 100.061 118.052 100.36C117.945 100.637 117.785 100.819 117.572 100.904C116.91 101.181 116.302 101.256 115.748 101.128C115.214 101.021 114.83 100.797 114.596 100.456C114.425 100.179 114.297 99.8587 114.212 99.496C114.126 99.112 114.062 98.728 114.02 98.344C113.998 97.9387 113.988 97.5547 113.988 97.192C114.009 96.808 114.02 96.4773 114.02 96.2C114.041 95.304 114.052 94.2907 114.052 93.16C114.073 92.008 114.084 90.856 114.084 89.704H113.604C113.348 89.704 113.017 89.704 112.612 89.704C112.228 89.6827 111.833 89.6507 111.428 89.608C111.044 89.544 110.681 89.4693 110.34 89.384C109.998 89.2773 109.753 89.128 109.604 88.936C109.369 88.6587 109.22 88.36 109.156 88.04C109.113 87.72 109.134 87.4213 109.22 87.144C109.326 86.8453 109.486 86.5893 109.7 86.376C109.913 86.1413 110.158 85.992 110.436 85.928C110.82 85.8213 111.364 85.768 112.068 85.768C112.772 85.7467 113.433 85.7467 114.052 85.768C114.03 85.5547 114.02 85.352 114.02 85.16C114.02 84.9467 114.009 84.744 113.988 84.552C113.966 84.296 113.956 83.976 113.956 83.592C113.956 83.1867 113.977 82.792 114.02 82.408C114.084 82.0027 114.18 81.6293 114.308 81.288C114.436 80.9253 114.617 80.648 114.852 80.456C115.172 80.2 115.492 80.0613 115.812 80.04C116.153 79.9973 116.462 80.04 116.74 80.168C117.038 80.296 117.284 80.488 117.476 80.744C117.689 80.9787 117.838 81.2453 117.924 81.544C117.988 81.8 118.041 82.1093 118.084 82.472C118.126 82.8133 118.148 83.176 118.148 83.56C118.169 83.944 118.18 84.328 118.18 84.712C118.18 85.096 118.18 85.448 118.18 85.768H118.5C118.82 85.768 119.193 85.7573 119.62 85.736C120.046 85.7147 120.462 85.7253 120.868 85.768C121.294 85.8107 121.678 85.9173 122.02 86.088C122.361 86.2373 122.617 86.504 122.788 86.888ZM129.531 88.872C129.531 89.4693 129.531 90.1413 129.531 90.888C129.552 91.6347 129.563 92.4133 129.563 93.224C129.563 94.0133 129.563 94.8027 129.563 95.592C129.563 96.36 129.552 97.0747 129.531 97.736C129.509 98.056 129.477 98.408 129.435 98.792C129.392 99.1547 129.307 99.496 129.179 99.816C129.051 100.136 128.848 100.403 128.571 100.616C128.315 100.808 127.963 100.893 127.515 100.872C126.853 100.829 126.373 100.541 126.075 100.008C125.797 99.4747 125.637 98.728 125.595 97.768C125.595 97.2773 125.584 96.712 125.563 96.072C125.563 95.432 125.552 94.7813 125.531 94.12C125.531 93.4587 125.531 92.8187 125.531 92.2C125.531 91.56 125.531 90.984 125.531 90.472C125.531 90.1733 125.52 89.8107 125.499 89.384C125.499 88.9573 125.509 88.52 125.531 88.072C125.552 87.624 125.605 87.1973 125.691 86.792C125.776 86.3653 125.915 86.0133 126.107 85.736C126.256 85.5653 126.469 85.4373 126.747 85.352C127.024 85.2453 127.312 85.192 127.611 85.192C127.931 85.192 128.229 85.2453 128.507 85.352C128.805 85.4587 129.019 85.608 129.147 85.8C129.232 85.928 129.296 86.1093 129.339 86.344C129.381 86.5787 129.413 86.8453 129.435 87.144C129.477 87.4213 129.499 87.72 129.499 88.04C129.52 88.3387 129.531 88.616 129.531 88.872ZM128.315 82.408C127.653 82.5787 127.099 82.5147 126.651 82.216C126.224 81.896 125.957 81.4267 125.851 80.808C125.765 80.36 125.797 79.9653 125.947 79.624C126.096 79.2827 126.32 79.0267 126.619 78.856C126.917 78.664 127.259 78.5787 127.643 78.6C128.027 78.6213 128.411 78.7707 128.795 79.048C129.157 79.304 129.413 79.6027 129.563 79.944C129.733 80.2853 129.787 80.616 129.723 80.936C129.68 81.256 129.541 81.5547 129.307 81.832C129.072 82.088 128.741 82.28 128.315 82.408ZM136.471 86.536C137.175 86.1947 137.911 85.9493 138.679 85.8C139.447 85.6507 140.204 85.6187 140.951 85.704C141.719 85.7893 142.455 85.992 143.159 86.312C143.884 86.632 144.545 87.08 145.143 87.656C145.633 88.1467 146.06 88.744 146.423 89.448C146.785 90.1307 147.052 90.8027 147.222 91.464C147.585 92.6373 147.639 93.8213 147.383 95.016C147.127 96.2107 146.689 97.32 146.071 98.344C145.772 98.8133 145.399 99.24 144.951 99.624C144.524 99.9867 144.065 100.285 143.575 100.52C142.935 100.819 142.241 101.021 141.495 101.128C140.748 101.256 140.023 101.288 139.319 101.224C138.039 101.16 136.908 100.84 135.927 100.264C134.967 99.688 134.188 98.952 133.591 98.056C133.015 97.16 132.631 96.1467 132.439 95.016C132.268 93.864 132.343 92.6907 132.663 91.496C133.004 90.216 133.495 89.1813 134.135 88.392C134.796 87.5813 135.575 86.9627 136.471 86.536ZM137.431 90.824C137.111 91.1227 136.865 91.496 136.695 91.944C136.524 92.392 136.417 92.8613 136.375 93.352C136.332 93.8213 136.364 94.3013 136.471 94.792C136.599 95.2613 136.791 95.688 137.047 96.072C137.26 96.392 137.644 96.6587 138.199 96.872C138.753 97.0853 139.329 97.2133 139.927 97.256C140.609 97.2987 141.207 97.1173 141.719 96.712C142.231 96.2853 142.615 95.7627 142.871 95.144C143.148 94.5253 143.276 93.8533 143.255 93.128C143.233 92.4027 143.041 91.7413 142.679 91.144C142.423 90.7173 142.06 90.408 141.591 90.216C141.143 90.0027 140.663 89.896 140.151 89.896C139.66 89.8747 139.169 89.9493 138.679 90.12C138.188 90.2693 137.772 90.504 137.431 90.824ZM150.125 89.576C150.125 89.0853 150.114 88.5627 150.093 88.008C150.093 87.4533 150.189 86.952 150.381 86.504C150.551 86.0987 150.829 85.8107 151.213 85.64C151.618 85.448 152.013 85.4053 152.397 85.512C152.781 85.576 153.079 85.6933 153.293 85.864C153.506 86.0347 153.655 86.2373 153.741 86.472C153.847 86.6853 153.911 86.9413 153.933 87.24C153.954 87.5173 153.975 87.7947 153.997 88.072C154.21 87.688 154.477 87.3787 154.797 87.144C155.117 86.9093 155.447 86.7173 155.789 86.568C156.13 86.4187 156.45 86.312 156.749 86.248C157.069 86.184 157.314 86.152 157.485 86.152C158.295 86.152 159.095 86.3333 159.885 86.696C160.695 87.0373 161.367 87.528 161.901 88.168C162.199 88.552 162.423 88.9573 162.573 89.384C162.743 89.7893 162.861 90.216 162.925 90.664C163.01 91.112 163.063 91.5707 163.085 92.04C163.106 92.488 163.127 92.9467 163.149 93.416C163.255 94.7813 163.255 96.136 163.149 97.48C163.127 97.7573 163.117 98.0773 163.117 98.44C163.117 98.8027 163.085 99.1653 163.021 99.528C162.978 99.8693 162.882 100.179 162.733 100.456C162.605 100.712 162.381 100.872 162.061 100.936C161.613 101.043 161.239 101.064 160.941 101C160.663 100.957 160.439 100.861 160.269 100.712C160.098 100.563 159.97 100.371 159.885 100.136C159.799 99.9013 159.725 99.6347 159.661 99.336C159.618 99.1013 159.575 98.8347 159.533 98.536C159.511 98.216 159.49 97.896 159.469 97.576C159.469 97.256 159.458 96.9467 159.437 96.648C159.437 96.328 159.437 96.04 159.437 95.784C159.437 95.3787 159.426 94.9307 159.405 94.44C159.383 93.9493 159.383 93.4907 159.405 93.064C159.405 92.0613 159.138 91.304 158.605 90.792C158.093 90.2587 157.389 90.0347 156.493 90.12C155.81 90.2053 155.213 90.4827 154.701 90.952C154.189 91.4 153.943 91.9867 153.965 92.712C153.965 92.9893 153.965 93.2453 153.965 93.48C153.965 93.7147 153.954 93.9493 153.933 94.184C153.933 94.4187 153.933 94.6747 153.933 94.952C153.933 95.2293 153.933 95.5387 153.933 95.88C153.933 96.584 153.933 97.3307 153.933 98.12C153.933 98.888 153.837 99.5173 153.645 100.008C153.474 100.52 153.186 100.872 152.781 101.064C152.375 101.256 151.895 101.203 151.341 100.904C151.106 100.776 150.914 100.605 150.765 100.392C150.637 100.157 150.53 99.912 150.445 99.656C150.381 99.4 150.338 99.144 150.317 98.888C150.295 98.6107 150.274 98.3547 150.253 98.12C150.189 97.416 150.146 96.7653 150.125 96.168C150.125 95.5493 150.125 94.888 150.125 94.184V89.576ZM191.532 98.568C191.51 98.9307 191.457 99.3147 191.372 99.72C191.308 100.125 191.105 100.456 190.764 100.712C190.508 100.925 190.22 101.053 189.9 101.096C189.58 101.139 189.26 101.117 188.94 101.032C188.641 100.968 188.353 100.861 188.076 100.712C187.798 100.541 187.574 100.339 187.404 100.104C186.678 99.208 186.006 98.2907 185.388 97.352C184.79 96.392 184.182 95.432 183.564 94.472L180.876 90.408C180.513 89.832 180.129 89.192 179.724 88.488C179.318 87.7627 178.902 87.0907 178.476 86.472L178.38 98.696V98.984C178.38 99.3253 178.316 99.6667 178.188 100.008C178.081 100.328 177.889 100.605 177.612 100.84C177.398 101.011 177.121 101.128 176.78 101.192C176.246 101.299 175.798 101.267 175.436 101.096C175.094 100.925 174.817 100.691 174.604 100.392C174.412 100.093 174.273 99.752 174.188 99.368C174.124 98.9627 174.113 98.568 174.156 98.184V97.64L174.22 95.144L174.252 90.504C174.273 89.8213 174.284 89.128 174.284 88.424C174.284 87.6987 174.284 86.9627 174.284 86.216C174.262 85.2987 174.262 84.328 174.284 83.304C174.326 82.28 174.369 81.32 174.412 80.424C174.454 79.9333 174.572 79.5173 174.764 79.176C174.849 78.8773 175.073 78.6213 175.436 78.408C175.67 78.2587 175.969 78.1627 176.332 78.12C176.716 78.0773 177.046 78.088 177.324 78.152C177.43 78.1947 177.537 78.248 177.644 78.312C177.75 78.3547 177.857 78.408 177.964 78.472C178.07 78.5573 178.166 78.6427 178.252 78.728C178.358 78.8133 178.454 78.9093 178.54 79.016C178.646 79.1227 178.742 79.24 178.828 79.368C178.913 79.4747 178.998 79.5813 179.084 79.688C179.148 79.816 179.212 79.9333 179.276 80.04C179.34 80.1467 179.414 80.2533 179.5 80.36L179.852 80.872L187.244 92.52V90.408C187.244 89.7253 187.233 89.032 187.212 88.328C187.212 87.6027 187.201 86.856 187.18 86.088C187.18 85.192 187.18 84.232 187.18 83.208C187.201 82.184 187.233 81.224 187.276 80.328C187.276 79.9653 187.382 79.5493 187.596 79.08C187.702 78.8027 187.884 78.5787 188.14 78.408C188.396 78.2373 188.684 78.12 189.004 78.056C189.324 77.992 189.644 77.992 189.964 78.056C190.284 78.12 190.561 78.248 190.796 78.44C190.86 78.504 190.924 78.5787 190.988 78.664C191.052 78.7493 191.105 78.8453 191.148 78.952C191.254 79.2293 191.318 79.4747 191.34 79.688C191.404 79.9867 191.436 80.2533 191.436 80.488C191.436 83.1547 191.436 85.8747 191.436 88.648C191.457 91.4213 191.478 94.1413 191.5 96.808C191.5 97.1067 191.51 97.4053 191.532 97.704C191.553 97.9813 191.553 98.2693 191.532 98.568ZM198.875 88.872C198.875 89.4693 198.875 90.1413 198.875 90.888C198.896 91.6347 198.907 92.4133 198.907 93.224C198.907 94.0133 198.907 94.8027 198.907 95.592C198.907 96.36 198.896 97.0747 198.875 97.736C198.853 98.056 198.821 98.408 198.779 98.792C198.736 99.1547 198.651 99.496 198.523 99.816C198.395 100.136 198.192 100.403 197.915 100.616C197.659 100.808 197.307 100.893 196.859 100.872C196.197 100.829 195.717 100.541 195.419 100.008C195.141 99.4747 194.981 98.728 194.939 97.768C194.939 97.2773 194.928 96.712 194.907 96.072C194.907 95.432 194.896 94.7813 194.875 94.12C194.875 93.4587 194.875 92.8187 194.875 92.2C194.875 91.56 194.875 90.984 194.875 90.472C194.875 90.1733 194.864 89.8107 194.843 89.384C194.843 88.9573 194.853 88.52 194.875 88.072C194.896 87.624 194.949 87.1973 195.035 86.792C195.12 86.3653 195.259 86.0133 195.451 85.736C195.6 85.5653 195.813 85.4373 196.091 85.352C196.368 85.2453 196.656 85.192 196.955 85.192C197.275 85.192 197.573 85.2453 197.851 85.352C198.149 85.4587 198.363 85.608 198.491 85.8C198.576 85.928 198.64 86.1093 198.683 86.344C198.725 86.5787 198.757 86.8453 198.779 87.144C198.821 87.4213 198.843 87.72 198.843 88.04C198.864 88.3387 198.875 88.616 198.875 88.872ZM197.659 82.408C196.997 82.5787 196.443 82.5147 195.995 82.216C195.568 81.896 195.301 81.4267 195.195 80.808C195.109 80.36 195.141 79.9653 195.291 79.624C195.44 79.2827 195.664 79.0267 195.963 78.856C196.261 78.664 196.603 78.5787 196.987 78.6C197.371 78.6213 197.755 78.7707 198.139 79.048C198.501 79.304 198.757 79.6027 198.907 79.944C199.077 80.2853 199.131 80.616 199.067 80.936C199.024 81.256 198.885 81.5547 198.651 81.832C198.416 82.088 198.085 82.28 197.659 82.408ZM202.062 89.576C202.062 89.0853 202.051 88.5627 202.03 88.008C202.03 87.4533 202.126 86.952 202.318 86.504C202.489 86.0987 202.766 85.8107 203.15 85.64C203.555 85.448 203.95 85.4053 204.334 85.512C204.718 85.576 205.017 85.6933 205.23 85.864C205.443 86.0347 205.593 86.2373 205.678 86.472C205.785 86.6853 205.849 86.9413 205.87 87.24C205.891 87.5173 205.913 87.7947 205.934 88.072C206.147 87.688 206.414 87.3787 206.734 87.144C207.054 86.9093 207.385 86.7173 207.726 86.568C208.067 86.4187 208.387 86.312 208.686 86.248C209.006 86.184 209.251 86.152 209.422 86.152C210.233 86.152 211.033 86.3333 211.822 86.696C212.633 87.0373 213.305 87.528 213.838 88.168C214.137 88.552 214.361 88.9573 214.51 89.384C214.681 89.7893 214.798 90.216 214.862 90.664C214.947 91.112 215.001 91.5707 215.022 92.04C215.043 92.488 215.065 92.9467 215.086 93.416C215.193 94.7813 215.193 96.136 215.086 97.48C215.065 97.7573 215.054 98.0773 215.054 98.44C215.054 98.8027 215.022 99.1653 214.958 99.528C214.915 99.8693 214.819 100.179 214.67 100.456C214.542 100.712 214.318 100.872 213.998 100.936C213.55 101.043 213.177 101.064 212.878 101C212.601 100.957 212.377 100.861 212.206 100.712C212.035 100.563 211.907 100.371 211.822 100.136C211.737 99.9013 211.662 99.6347 211.598 99.336C211.555 99.1013 211.513 98.8347 211.47 98.536C211.449 98.216 211.427 97.896 211.406 97.576C211.406 97.256 211.395 96.9467 211.374 96.648C211.374 96.328 211.374 96.04 211.374 95.784C211.374 95.3787 211.363 94.9307 211.342 94.44C211.321 93.9493 211.321 93.4907 211.342 93.064C211.342 92.0613 211.075 91.304 210.542 90.792C210.03 90.2587 209.326 90.0347 208.43 90.12C207.747 90.2053 207.15 90.4827 206.638 90.952C206.126 91.4 205.881 91.9867 205.902 92.712C205.902 92.9893 205.902 93.2453 205.902 93.48C205.902 93.7147 205.891 93.9493 205.87 94.184C205.87 94.4187 205.87 94.6747 205.87 94.952C205.87 95.2293 205.87 95.5387 205.87 95.88C205.87 96.584 205.87 97.3307 205.87 98.12C205.87 98.888 205.774 99.5173 205.582 100.008C205.411 100.52 205.123 100.872 204.718 101.064C204.313 101.256 203.833 101.203 203.278 100.904C203.043 100.776 202.851 100.605 202.702 100.392C202.574 100.157 202.467 99.912 202.382 99.656C202.318 99.4 202.275 99.144 202.254 98.888C202.233 98.6107 202.211 98.3547 202.19 98.12C202.126 97.416 202.083 96.7653 202.062 96.168C202.062 95.5493 202.062 94.888 202.062 94.184V89.576ZM227.029 82.472C226.389 82.664 225.845 82.6 225.397 82.28C224.949 81.9387 224.671 81.4587 224.565 80.84C224.501 80.392 224.543 79.9973 224.693 79.656C224.863 79.3147 225.087 79.0587 225.365 78.888C225.663 78.7173 226.005 78.6427 226.389 78.664C226.773 78.6853 227.157 78.8347 227.541 79.112C227.903 79.368 228.159 79.6667 228.309 80.008C228.479 80.328 228.533 80.648 228.469 80.968C228.426 81.288 228.287 81.5867 228.053 81.864C227.818 82.1413 227.477 82.344 227.029 82.472ZM228.309 88.36C228.309 88.616 228.309 89.096 228.309 89.8C228.309 90.504 228.309 91.272 228.309 92.104C228.309 92.9147 228.309 93.704 228.309 94.472C228.309 95.24 228.309 95.8267 228.309 96.232C228.287 96.872 228.245 97.5547 228.181 98.28C228.138 99.0053 228.031 99.72 227.861 100.424C227.711 101.128 227.466 101.779 227.125 102.376C226.783 102.995 226.314 103.507 225.717 103.912C225.034 104.36 224.287 104.648 223.477 104.776C222.666 104.925 221.877 104.883 221.109 104.648C220.639 104.541 220.181 104.381 219.733 104.168C219.306 103.955 218.943 103.677 218.645 103.336C218.261 102.931 217.983 102.44 217.813 101.864C217.642 101.309 217.749 100.787 218.133 100.296C218.389 99.976 218.698 99.7733 219.061 99.688C219.445 99.5813 219.818 99.624 220.181 99.816C220.522 99.9867 220.853 100.157 221.173 100.328C221.493 100.499 221.813 100.616 222.133 100.68C222.453 100.723 222.773 100.691 223.093 100.584C223.413 100.456 223.733 100.2 224.053 99.816C224.202 99.624 224.309 99.3467 224.373 98.984C224.458 98.6213 224.511 98.2267 224.533 97.8C224.575 97.352 224.597 96.9147 224.597 96.488C224.597 96.04 224.597 95.6453 224.597 95.304C224.597 94.8347 224.597 94.44 224.597 94.12C224.597 93.7787 224.597 93.4693 224.597 93.192C224.597 92.8933 224.597 92.5947 224.597 92.296C224.597 91.976 224.597 91.592 224.597 91.144C224.597 90.888 224.586 90.504 224.565 89.992C224.543 89.48 224.533 88.9467 224.533 88.392C224.554 87.816 224.597 87.2827 224.661 86.792C224.746 86.3013 224.874 85.9493 225.045 85.736C225.322 85.3733 225.674 85.192 226.101 85.192C226.549 85.1707 226.954 85.2773 227.317 85.512C227.551 85.6613 227.733 85.8533 227.861 86.088C227.989 86.3013 228.085 86.536 228.149 86.792C228.213 87.048 228.255 87.3147 228.277 87.592C228.298 87.848 228.309 88.104 228.309 88.36ZM234.805 87.528C235.445 87.208 236.117 86.984 236.821 86.856C237.525 86.7067 238.219 86.6747 238.901 86.76C239.605 86.824 240.277 87.0053 240.917 87.304C241.557 87.5813 242.155 87.9867 242.709 88.52C243.264 89.0747 243.691 89.6827 243.989 90.344C244.288 91.0053 244.501 91.7413 244.629 92.552C244.715 93.1067 244.853 93.6187 245.045 94.088C245.237 94.5573 245.44 95.0267 245.653 95.496C245.888 95.9653 246.101 96.4347 246.293 96.904C246.507 97.3733 246.677 97.864 246.805 98.376C246.912 98.8667 246.869 99.3467 246.677 99.816C246.507 100.264 246.144 100.541 245.589 100.648C245.269 100.712 244.96 100.691 244.661 100.584C244.384 100.456 244.128 100.285 243.893 100.072C243.659 99.8373 243.445 99.592 243.253 99.336C243.083 99.0587 242.923 98.8027 242.773 98.568C242.283 99.208 241.749 99.7093 241.173 100.072C240.597 100.413 239.904 100.637 239.093 100.744C238.411 100.829 237.76 100.851 237.141 100.808C236.523 100.765 235.861 100.648 235.157 100.456C234.24 100.221 233.483 99.816 232.885 99.24C232.309 98.6427 231.861 97.96 231.541 97.192C231.243 96.4027 231.083 95.56 231.061 94.664C231.04 93.768 231.147 92.8827 231.381 92.008C231.68 90.856 232.128 89.9173 232.725 89.192C233.323 88.4667 234.016 87.912 234.805 87.528ZM235.605 91.272C235.307 91.5707 235.072 91.9227 234.901 92.328C234.731 92.7333 234.624 93.16 234.581 93.608C234.56 94.056 234.603 94.504 234.709 94.952C234.816 95.4 234.987 95.7947 235.221 96.136C235.435 96.4347 235.797 96.6907 236.309 96.904C236.821 97.096 237.355 97.2133 237.909 97.256C238.549 97.2987 239.104 97.128 239.573 96.744C240.064 96.36 240.427 95.88 240.661 95.304C240.917 94.7067 241.035 94.0773 241.013 93.416C240.992 92.7333 240.811 92.1147 240.469 91.56C240.213 91.1547 239.872 90.856 239.445 90.664C239.04 90.472 238.603 90.376 238.133 90.376C237.664 90.3547 237.195 90.4293 236.725 90.6C236.277 90.7493 235.904 90.9733 235.605 91.272Z" fill="black"/>
<rect x="97.5" y="124.5" width="94" height="26" rx="13" fill="#6C47FF" stroke="black" stroke-width="3"/>
<path d="M112.46 131.1C112.967 131.567 113.34 132.127 113.58 132.78C113.82 133.42 113.913 134.06 113.86 134.7C113.807 135.313 113.613 135.88 113.28 136.4C112.947 136.907 112.44 137.293 111.76 137.56C111.227 137.787 110.7 137.947 110.18 138.04C109.66 138.133 109.087 138.207 108.46 138.26C108.18 138.287 107.94 138.307 107.74 138.32C107.553 138.32 107.333 138.327 107.08 138.34C107.027 138.34 106.933 138.34 106.8 138.34C106.68 138.34 106.593 138.347 106.54 138.36V142.5C106.5 142.753 106.447 143.013 106.38 143.28C106.327 143.547 106.173 143.753 105.92 143.9C105.773 143.98 105.593 144.027 105.38 144.04C105.167 144.053 104.973 144.047 104.8 144.02C104.613 143.993 104.453 143.947 104.32 143.88C104.2 143.8 104.1 143.667 104.02 143.48C103.967 143.36 103.913 143.227 103.86 143.08C103.82 142.92 103.8 142.727 103.8 142.5V131.44C103.8 131.347 103.807 131.26 103.82 131.18C103.833 131.1 103.847 131.02 103.86 130.94C103.887 130.873 103.907 130.8 103.92 130.72C103.933 130.64 103.953 130.567 103.98 130.5C104.007 130.433 104.033 130.373 104.06 130.32C104.1 130.267 104.147 130.22 104.2 130.18C104.267 130.113 104.367 130.053 104.5 130C104.647 129.947 104.86 129.92 105.14 129.92H105.18C105.593 129.893 106.053 129.873 106.56 129.86C107.067 129.833 107.487 129.84 107.82 129.88C108.007 129.907 108.18 129.927 108.34 129.94C108.5 129.94 108.653 129.947 108.8 129.96C108.96 129.973 109.12 129.987 109.28 130C109.44 130.013 109.6 130.033 109.76 130.06C109.893 130.087 110.013 130.107 110.12 130.12C110.24 130.133 110.36 130.153 110.48 130.18C110.587 130.207 110.7 130.233 110.82 130.26C110.953 130.287 111.073 130.333 111.18 130.4C111.46 130.48 111.693 130.58 111.88 130.7C112.067 130.82 112.26 130.953 112.46 131.1ZM111.26 134.4C111.273 134.08 111.207 133.8 111.06 133.56C110.927 133.32 110.733 133.12 110.48 132.96C110.227 132.8 109.94 132.673 109.62 132.58C109.3 132.487 108.98 132.42 108.66 132.38C108.58 132.38 108.467 132.38 108.32 132.38C108.187 132.367 108.04 132.36 107.88 132.36C107.72 132.347 107.567 132.34 107.42 132.34C107.287 132.327 107.18 132.32 107.1 132.32C107.033 132.307 106.953 132.3 106.86 132.3C106.767 132.3 106.66 132.3 106.54 132.3C106.553 132.713 106.56 133.113 106.56 133.5C106.56 133.873 106.56 134.28 106.56 134.72C106.547 134.96 106.54 135.2 106.54 135.44C106.54 135.68 106.54 135.913 106.54 136.14L107.78 136.12C108.1 136.12 108.453 136.1 108.84 136.06C109.227 136.02 109.593 135.94 109.94 135.82C110.287 135.7 110.58 135.527 110.82 135.3C111.073 135.073 111.22 134.773 111.26 134.4ZM124.739 142.48C124.766 142.547 124.779 142.647 124.779 142.78C124.779 142.9 124.779 143 124.779 143.08C124.779 143.187 124.759 143.287 124.719 143.38C124.679 143.473 124.626 143.56 124.559 143.64C124.439 143.8 124.266 143.92 124.039 144C123.719 144.107 123.419 144.16 123.139 144.16C122.993 144.173 122.839 144.18 122.679 144.18C122.519 144.18 122.359 144.193 122.199 144.22H122.119C121.093 144.233 120.033 144.233 118.939 144.22C118.673 144.207 118.373 144.207 118.039 144.22C117.706 144.247 117.379 144.24 117.059 144.2C116.739 144.173 116.446 144.1 116.179 143.98C115.926 143.847 115.746 143.64 115.639 143.36C115.613 143.293 115.593 143.233 115.579 143.18C115.566 143.113 115.559 143.047 115.559 142.98C115.506 142.527 115.486 142.08 115.499 141.64C115.513 141.2 115.519 140.767 115.519 140.34L115.559 137.44V134.76C115.559 134.28 115.559 133.853 115.559 133.48C115.573 133.107 115.586 132.693 115.599 132.24V132.14C115.613 132.007 115.619 131.873 115.619 131.74C115.633 131.607 115.639 131.473 115.639 131.34C115.666 131.033 115.739 130.773 115.859 130.56C115.939 130.36 116.079 130.2 116.279 130.08C116.453 129.96 116.659 129.9 116.899 129.9C116.993 129.9 117.079 129.907 117.159 129.92C117.253 129.92 117.339 129.927 117.419 129.94C117.499 129.953 117.573 129.98 117.639 130.02C117.719 130.06 117.799 130.113 117.879 130.18C117.959 130.273 118.033 130.387 118.099 130.52C118.153 130.667 118.186 130.813 118.199 130.96C118.213 131.053 118.226 131.14 118.239 131.22C118.253 131.3 118.259 131.38 118.259 131.46C118.233 131.54 118.219 131.62 118.219 131.7C118.219 131.78 118.219 131.853 118.219 131.92V132.28L118.139 141.7L122.099 141.74H123.039C123.119 141.74 123.206 141.747 123.299 141.76C123.393 141.76 123.486 141.767 123.579 141.78C123.686 141.793 123.779 141.807 123.859 141.82C123.939 141.833 124.019 141.853 124.099 141.88C124.246 141.92 124.366 141.987 124.459 142.08C124.606 142.213 124.699 142.347 124.739 142.48ZM127.663 135.58C128.063 135.38 128.483 135.24 128.923 135.16C129.363 135.067 129.797 135.047 130.223 135.1C130.663 135.14 131.083 135.253 131.483 135.44C131.883 135.613 132.257 135.867 132.603 136.2C132.95 136.547 133.217 136.927 133.403 137.34C133.59 137.753 133.723 138.213 133.803 138.72C133.857 139.067 133.943 139.387 134.063 139.68C134.183 139.973 134.31 140.267 134.443 140.56C134.59 140.853 134.723 141.147 134.843 141.44C134.977 141.733 135.083 142.04 135.163 142.36C135.23 142.667 135.203 142.967 135.083 143.26C134.977 143.54 134.75 143.713 134.403 143.78C134.203 143.82 134.01 143.807 133.823 143.74C133.65 143.66 133.49 143.553 133.343 143.42C133.197 143.273 133.063 143.12 132.943 142.96C132.837 142.787 132.737 142.627 132.643 142.48C132.337 142.88 132.003 143.193 131.643 143.42C131.283 143.633 130.85 143.773 130.343 143.84C129.917 143.893 129.51 143.907 129.123 143.88C128.737 143.853 128.323 143.78 127.883 143.66C127.31 143.513 126.837 143.26 126.463 142.9C126.103 142.527 125.823 142.1 125.623 141.62C125.437 141.127 125.337 140.6 125.323 140.04C125.31 139.48 125.377 138.927 125.523 138.38C125.71 137.66 125.99 137.073 126.363 136.62C126.737 136.167 127.17 135.82 127.663 135.58ZM128.163 137.92C127.977 138.107 127.83 138.327 127.723 138.58C127.617 138.833 127.55 139.1 127.523 139.38C127.51 139.66 127.537 139.94 127.603 140.22C127.67 140.5 127.777 140.747 127.923 140.96C128.057 141.147 128.283 141.307 128.603 141.44C128.923 141.56 129.257 141.633 129.603 141.66C130.003 141.687 130.35 141.58 130.643 141.34C130.95 141.1 131.177 140.8 131.323 140.44C131.483 140.067 131.557 139.673 131.543 139.26C131.53 138.833 131.417 138.447 131.203 138.1C131.043 137.847 130.83 137.66 130.563 137.54C130.31 137.42 130.037 137.36 129.743 137.36C129.45 137.347 129.157 137.393 128.863 137.5C128.583 137.593 128.35 137.733 128.163 137.92ZM145.207 135.08C145.327 135.267 145.38 135.467 145.367 135.68C145.367 135.987 145.313 136.253 145.207 136.48C145.18 136.547 145.14 136.633 145.087 136.74C145.047 136.847 145 136.96 144.947 137.08C144.907 137.2 144.86 137.313 144.807 137.42C144.753 137.527 144.713 137.607 144.687 137.66L144.647 137.76C144.46 138.173 144.28 138.573 144.107 138.96C143.933 139.347 143.74 139.76 143.527 140.2C143.313 140.627 143.107 141.047 142.907 141.46C142.72 141.86 142.533 142.253 142.347 142.64C142.293 142.747 142.247 142.853 142.207 142.96C142.167 143.053 142.113 143.153 142.047 143.26L141.087 145.32C140.913 145.667 140.747 146.007 140.587 146.34C140.44 146.673 140.273 147.007 140.087 147.34C140.047 147.407 140.007 147.467 139.967 147.52C139.94 147.587 139.913 147.653 139.887 147.72C139.793 147.88 139.653 148.033 139.467 148.18C139.293 148.34 139.107 148.427 138.907 148.44C138.547 148.467 138.233 148.36 137.967 148.12C137.807 148.027 137.68 147.893 137.587 147.72C137.533 147.6 137.507 147.447 137.507 147.26C137.52 147.18 137.527 147.1 137.527 147.02C137.54 146.953 137.553 146.887 137.567 146.82C137.593 146.753 137.613 146.687 137.627 146.62C137.64 146.553 137.66 146.5 137.687 146.46C137.727 146.353 137.76 146.3 137.787 146.3L139.247 143.14C139.18 142.993 139.113 142.847 139.047 142.7C138.98 142.54 138.92 142.4 138.867 142.28C138.693 141.867 138.507 141.433 138.307 140.98C138.12 140.513 137.927 140.053 137.727 139.6C137.527 139.133 137.32 138.68 137.107 138.24C136.893 137.8 136.68 137.38 136.467 136.98C136.387 136.847 136.313 136.707 136.247 136.56C136.18 136.4 136.127 136.247 136.087 136.1C136.047 135.94 136.033 135.78 136.047 135.62C136.06 135.46 136.12 135.3 136.227 135.14C136.333 134.94 136.473 134.8 136.647 134.72C136.82 134.627 137 134.587 137.187 134.6C137.387 134.6 137.573 134.64 137.747 134.72C137.92 134.8 138.06 134.907 138.167 135.04C138.393 135.28 138.573 135.547 138.707 135.84C138.84 136.133 138.967 136.433 139.087 136.74C139.34 137.273 139.6 137.833 139.867 138.42C140.133 139.007 140.4 139.58 140.667 140.14L141.707 137.94C141.813 137.727 141.907 137.52 141.987 137.32C142.08 137.12 142.173 136.927 142.267 136.74C142.373 136.513 142.473 136.28 142.567 136.04C142.673 135.8 142.793 135.58 142.927 135.38C142.953 135.327 142.98 135.28 143.007 135.24C143.033 135.2 143.06 135.153 143.087 135.1C143.207 134.94 143.313 134.813 143.407 134.72C143.473 134.667 143.527 134.627 143.567 134.6C143.62 134.56 143.68 134.533 143.747 134.52C143.84 134.493 143.927 134.48 144.007 134.48C144.1 134.467 144.187 134.467 144.267 134.48C144.4 134.52 144.56 134.58 144.747 134.66C144.947 134.74 145.1 134.88 145.207 135.08ZM152.199 136.86C152.199 136.553 152.192 136.227 152.179 135.88C152.179 135.533 152.239 135.22 152.359 134.94C152.466 134.687 152.639 134.507 152.879 134.4C153.132 134.28 153.379 134.253 153.619 134.32C153.859 134.36 154.046 134.433 154.179 134.54C154.312 134.647 154.406 134.773 154.459 134.92C154.526 135.053 154.566 135.213 154.579 135.4C154.592 135.573 154.606 135.747 154.619 135.92C154.752 135.68 154.919 135.487 155.119 135.34C155.319 135.193 155.526 135.073 155.739 134.98C155.952 134.887 156.152 134.82 156.339 134.78C156.539 134.74 156.692 134.72 156.799 134.72C157.306 134.72 157.806 134.833 158.299 135.06C158.806 135.273 159.226 135.58 159.559 135.98C159.746 136.22 159.886 136.473 159.979 136.74C160.086 136.993 160.159 137.26 160.199 137.54C160.252 137.82 160.286 138.107 160.299 138.4C160.312 138.68 160.326 138.967 160.339 139.26C160.406 140.113 160.406 140.96 160.339 141.8C160.326 141.973 160.319 142.173 160.319 142.4C160.319 142.627 160.299 142.853 160.259 143.08C160.232 143.293 160.172 143.487 160.079 143.66C159.999 143.82 159.859 143.92 159.659 143.96C159.379 144.027 159.146 144.04 158.959 144C158.786 143.973 158.646 143.913 158.539 143.82C158.432 143.727 158.352 143.607 158.299 143.46C158.246 143.313 158.199 143.147 158.159 142.96C158.132 142.813 158.106 142.647 158.079 142.46C158.066 142.26 158.052 142.06 158.039 141.86C158.039 141.66 158.032 141.467 158.019 141.28C158.019 141.08 158.019 140.9 158.019 140.74C158.019 140.487 158.012 140.207 157.999 139.9C157.986 139.593 157.986 139.307 157.999 139.04C157.999 138.413 157.832 137.94 157.499 137.62C157.179 137.287 156.739 137.147 156.179 137.2C155.752 137.253 155.379 137.427 155.059 137.72C154.739 138 154.586 138.367 154.599 138.82C154.599 138.993 154.599 139.153 154.599 139.3C154.599 139.447 154.592 139.593 154.579 139.74C154.579 139.887 154.579 140.047 154.579 140.22C154.579 140.393 154.579 140.587 154.579 140.8C154.579 141.24 154.579 141.707 154.579 142.2C154.579 142.68 154.519 143.073 154.399 143.38C154.292 143.7 154.112 143.92 153.859 144.04C153.606 144.16 153.306 144.127 152.959 143.94C152.812 143.86 152.692 143.753 152.599 143.62C152.519 143.473 152.452 143.32 152.399 143.16C152.359 143 152.332 142.84 152.319 142.68C152.306 142.507 152.292 142.347 152.279 142.2C152.239 141.76 152.212 141.353 152.199 140.98C152.199 140.593 152.199 140.18 152.199 139.74V136.86ZM164.583 134.96C165.023 134.747 165.483 134.593 165.963 134.5C166.443 134.407 166.916 134.387 167.383 134.44C167.863 134.493 168.323 134.62 168.763 134.82C169.216 135.02 169.63 135.3 170.003 135.66C170.31 135.967 170.576 136.34 170.803 136.78C171.03 137.207 171.196 137.627 171.303 138.04C171.53 138.773 171.563 139.513 171.403 140.26C171.243 141.007 170.97 141.7 170.583 142.34C170.396 142.633 170.163 142.9 169.883 143.14C169.616 143.367 169.33 143.553 169.023 143.7C168.623 143.887 168.19 144.013 167.723 144.08C167.256 144.16 166.803 144.18 166.363 144.14C165.563 144.1 164.856 143.9 164.243 143.54C163.643 143.18 163.156 142.72 162.783 142.16C162.423 141.6 162.183 140.967 162.063 140.26C161.956 139.54 162.003 138.807 162.203 138.06C162.416 137.26 162.723 136.613 163.123 136.12C163.536 135.613 164.023 135.227 164.583 134.96ZM165.183 137.64C164.983 137.827 164.83 138.06 164.723 138.34C164.616 138.62 164.55 138.913 164.523 139.22C164.496 139.513 164.516 139.813 164.583 140.12C164.663 140.413 164.783 140.68 164.943 140.92C165.076 141.12 165.316 141.287 165.663 141.42C166.01 141.553 166.37 141.633 166.743 141.66C167.17 141.687 167.543 141.573 167.863 141.32C168.183 141.053 168.423 140.727 168.583 140.34C168.756 139.953 168.836 139.533 168.823 139.08C168.81 138.627 168.69 138.213 168.463 137.84C168.303 137.573 168.076 137.38 167.783 137.26C167.503 137.127 167.203 137.06 166.883 137.06C166.576 137.047 166.27 137.093 165.963 137.2C165.656 137.293 165.396 137.44 165.183 137.64ZM184.757 135C184.877 135.173 184.917 135.447 184.877 135.82C184.85 136.18 184.784 136.573 184.677 137C184.57 137.413 184.444 137.827 184.297 138.24C184.15 138.64 184.03 138.973 183.937 139.24C183.71 139.853 183.51 140.427 183.337 140.96C183.164 141.493 182.957 142.08 182.717 142.72C182.637 142.907 182.557 143.093 182.477 143.28C182.41 143.467 182.324 143.633 182.217 143.78C182.124 143.927 182.004 144.047 181.857 144.14C181.724 144.233 181.557 144.28 181.357 144.28C181.13 144.28 180.93 144.2 180.757 144.04C180.597 143.88 180.457 143.68 180.337 143.44C180.23 143.2 180.137 142.947 180.057 142.68C179.977 142.413 179.91 142.18 179.857 141.98C179.684 141.393 179.53 140.86 179.397 140.38C179.264 139.887 179.144 139.447 179.037 139.06C178.917 139.447 178.797 139.867 178.677 140.32C178.557 140.773 178.404 141.287 178.217 141.86C178.164 142.06 178.097 142.307 178.017 142.6C177.937 142.88 177.837 143.147 177.717 143.4C177.61 143.653 177.47 143.867 177.297 144.04C177.137 144.227 176.944 144.307 176.717 144.28C176.397 144.267 176.117 144.14 175.877 143.9C175.65 143.647 175.45 143.347 175.277 143C175.117 142.653 174.977 142.293 174.857 141.92C174.737 141.547 174.637 141.22 174.557 140.94C174.45 140.58 174.324 140.18 174.177 139.74C174.03 139.3 173.884 138.853 173.737 138.4C173.604 137.933 173.477 137.473 173.357 137.02C173.237 136.553 173.157 136.127 173.117 135.74C173.09 135.487 173.137 135.253 173.257 135.04C173.39 134.827 173.557 134.68 173.757 134.6C173.97 134.507 174.197 134.487 174.437 134.54C174.69 134.593 174.917 134.753 175.117 135.02C175.224 135.153 175.317 135.32 175.397 135.52C175.49 135.72 175.57 135.94 175.637 136.18C175.704 136.407 175.77 136.64 175.837 136.88C175.904 137.12 175.97 137.353 176.037 137.58C176.184 138.087 176.304 138.487 176.397 138.78C176.504 139.06 176.61 139.353 176.717 139.66C176.81 139.353 176.904 139.06 176.997 138.78C177.104 138.487 177.23 138.087 177.377 137.58C177.43 137.42 177.49 137.24 177.557 137.04C177.637 136.827 177.717 136.627 177.797 136.44C177.89 136.253 177.99 136.08 178.097 135.92C178.217 135.747 178.344 135.62 178.477 135.54C178.77 135.34 179.037 135.293 179.277 135.4C179.517 135.493 179.724 135.66 179.897 135.9C180.07 136.14 180.217 136.42 180.337 136.74C180.47 137.047 180.577 137.327 180.657 137.58C180.737 137.847 180.81 138.08 180.877 138.28C180.944 138.467 181.004 138.64 181.057 138.8C181.11 138.96 181.157 139.113 181.197 139.26C181.25 139.407 181.304 139.56 181.357 139.72C181.41 139.56 181.457 139.407 181.497 139.26C181.55 139.113 181.604 138.96 181.657 138.8C181.71 138.64 181.77 138.467 181.837 138.28C181.904 138.08 181.977 137.847 182.057 137.58C182.11 137.407 182.164 137.207 182.217 136.98C182.284 136.753 182.35 136.527 182.417 136.3C182.484 136.06 182.55 135.833 182.617 135.62C182.697 135.407 182.784 135.227 182.877 135.08C182.97 134.933 183.097 134.813 183.257 134.72C183.417 134.613 183.584 134.553 183.757 134.54C183.93 134.513 184.104 134.533 184.277 134.6C184.464 134.667 184.624 134.8 184.757 135Z" fill="black"/>
</svg>
