<svg xmlns="http://www.w3.org/2000/svg" width="613" height="78" viewBox="0 0 613 78" version="1.1"><path d="" stroke="none" fill="#fc9404" fill-rule="evenodd"/><path d="M 196.500 4.109 C 186.069 5.168, 182.022 7.181, 180.086 12.273 L 179.165 14.697 180.352 17.079 L 181.539 19.461 184.020 20.716 C 185.384 21.406, 187.705 21.977, 189.177 21.985 L 191.854 22 191.296 34.750 L 190.737 47.500 192.244 52 L 193.752 56.500 197.024 58.750 L 200.296 61 202.198 61 C 203.244 61, 205.366 60.345, 206.915 59.544 L 209.730 58.088 211.480 54.400 L 213.230 50.713 212.532 43.631 L 211.834 36.549 209.417 29.348 C 208.088 25.388, 207 21.917, 207 21.635 C 207 21.353, 209.030 20.818, 211.512 20.446 L 216.023 19.769 218.512 17.812 L 221 15.855 221 13.392 L 221 10.930 219.440 8.549 C 217.473 5.546, 215.938 4.927, 208.500 4.137 L 202.500 3.500 196.500 4.109 M 549.352 3.993 C 548.171 4.470, 546.821 5.454, 546.352 6.180 L 545.500 7.500 545 22.500 L 544.500 37.500 539.646 37.189 L 534.792 36.878 532.896 38.594 C 531.853 39.538, 530.933 41.028, 530.852 41.905 C 530.770 42.782, 530.382 38.964, 529.989 33.420 L 529.274 23.341 527.566 18.200 L 525.859 13.059 522.853 10.530 C 519.322 7.559, 518.256 7.452, 515.296 9.772 L 513.092 11.500 512.081 16 L 511.070 20.500 511.413 31 C 511.602 36.775, 511.537 40.825, 511.268 40 C 510.999 39.175, 508.761 34.294, 506.295 29.154 L 501.811 19.807 497.917 15.795 L 494.024 11.783 490.528 11.312 L 487.032 10.841 484.001 12.999 L 480.970 15.158 479.409 18.177 C 476.612 23.585, 475.836 29.176, 475.753 44.500 L 475.689 56.500 476.854 60.641 L 478.018 64.782 480.259 66.216 L 482.500 67.650 485.935 67.575 L 489.370 67.500 491.935 62.527 L 494.500 57.553 494.500 46.918 L 494.500 36.283 498.320 44.299 C 504.819 57.938, 511.585 66.762, 517.162 68.875 L 519.824 69.884 522.411 67.661 L 524.997 65.439 527.060 59.570 C 528.194 56.343, 529.259 52.180, 529.426 50.320 C 529.593 48.459, 530.015 46.651, 530.365 46.302 L 531 45.667 531 47.833 L 531 50 532 50 L 533 50 533 51.454 L 533 52.908 537.404 56.271 L 541.808 59.634 546.654 59.848 L 551.500 60.061 555.226 56.978 L 558.951 53.895 559.940 50.197 C 560.830 46.871, 561.758 39.021, 563.654 18.798 L 564.282 12.095 563.099 9.238 L 561.915 6.381 559.053 4.691 L 556.191 3 553.846 3.063 C 552.556 3.098, 550.534 3.517, 549.352 3.993 M 436.227 5.250 C 435.667 5.938, 434.470 8.283, 433.567 10.462 L 431.925 14.424 431.852 25.962 L 431.778 37.500 430.725 35 C 426.662 25.361, 422.559 17.213, 419.914 13.530 L 416.821 9.223 413.019 7.508 L 409.216 5.794 406.249 6.445 L 403.281 7.097 400.803 9.799 L 398.325 12.500 396.098 17.837 L 393.870 23.173 393.293 36.898 L 392.716 50.623 393.444 55.474 L 394.171 60.325 397.009 63.163 L 399.846 66 402.288 66 L 404.730 66 407.289 63.987 L 409.848 61.975 411.424 57.230 L 413 52.485 413.082 42.332 L 413.164 32.179 419.079 43.995 L 424.993 55.811 430.331 61.455 L 435.668 67.099 438.425 66.599 L 441.182 66.099 443.591 63.300 L 445.999 60.500 448.250 54 L 450.500 47.500 450.500 33 L 450.500 18.500 449.160 13.893 L 447.820 9.285 445.370 6.643 L 442.919 4 440.082 4 L 437.245 4 436.227 5.250 M 23.300 6.516 L 20.401 7.735 17.680 10.968 C 16.184 12.746, 13.193 17.869, 11.033 22.351 L 7.107 30.500 5.350 38 L 3.593 45.500 3.547 56.669 L 3.500 67.839 5.924 70.419 L 8.349 73 11.224 73 L 14.099 73 16.873 71.565 L 19.648 70.131 22.336 66.069 L 25.023 62.007 26.455 56.510 L 27.887 51.012 27.501 49.006 L 27.115 47 30.538 47 L 33.962 47 34.416 49.250 C 34.666 50.487, 35.085 53.075, 35.347 55 C 35.610 56.925, 36.296 59.719, 36.872 61.209 L 37.919 63.918 41.986 66.610 L 46.053 69.301 50.010 68.115 L 53.967 66.929 55.105 64.803 L 56.243 62.677 55.681 54.589 C 54.521 37.914, 50.700 26.555, 42.716 16.048 C 36.860 8.342, 33.963 6.226, 28.350 5.554 L 26.199 5.297 23.300 6.516 M 263.400 6.918 C 261.146 7.788, 257.447 9.789, 255.182 11.364 L 251.063 14.229 248.800 17.864 C 247.555 19.864, 246 22.850, 245.344 24.500 L 244.152 27.500 244.076 32.355 L 244 37.210 246.470 42.127 L 248.940 47.044 251.720 49.562 C 253.249 50.947, 256.859 53.199, 259.743 54.566 L 264.985 57.052 272.780 57.103 L 280.575 57.154 285.038 55.419 L 289.500 53.685 293.682 50.331 L 297.864 46.978 300.459 41.673 L 303.054 36.369 303.200 30.810 L 303.347 25.251 301.554 21.375 C 300.568 19.244, 298.353 15.985, 296.631 14.132 L 293.500 10.764 287.124 7.867 L 280.748 4.970 274.124 5.154 L 267.500 5.337 263.400 6.918 M 586.946 5.933 C 583.156 6.774, 579.818 9.811, 575.327 16.508 L 571.307 22.500 568.539 30 L 565.771 37.500 565.258 46.590 L 564.744 55.680 566.416 58.232 L 568.088 60.784 570.771 61.297 L 573.453 61.809 577.227 59.884 L 581 57.959 581 56.908 C 581 56.330, 581.663 55.194, 582.473 54.384 C 583.284 53.574, 584.460 51.018, 585.087 48.705 C 585.715 46.392, 586.388 43.938, 586.583 43.250 L 586.937 42 589.469 42 L 592 42 592.125 45.500 C 592.194 47.425, 592.327 49.337, 592.420 49.750 C 592.514 50.163, 592.914 52.116, 593.310 54.090 L 594.031 57.680 596.372 59.880 L 598.713 62.079 602.107 62.611 L 605.500 63.143 607.500 61.650 L 609.500 60.158 609.500 48.329 L 609.500 36.500 608.099 31.500 C 607.329 28.750, 605.238 23.350, 603.454 19.500 L 600.209 12.500 597.355 9.814 C 595.785 8.336, 593.375 6.731, 592 6.247 L 589.500 5.366 586.946 5.933 M 343.273 10.702 L 341.500 13.405 341 24.835 L 340.500 36.266 336.500 28.540 C 334.300 24.291, 330.952 18.998, 329.061 16.777 L 325.621 12.740 322.560 11.461 L 319.499 10.182 316.751 10.707 L 314.003 11.233 311.056 14.589 L 308.109 17.945 306.890 21.723 L 305.671 25.500 305.367 39 L 305.062 52.500 306.160 56.779 L 307.258 61.058 309.764 63.029 L 312.270 65 314.500 65 L 316.730 65 319.186 63.068 L 321.643 61.136 322.942 56.818 L 324.241 52.500 324.156 43.222 L 324.070 33.944 328.543 42.638 C 333.553 52.376, 336.770 56.980, 341.897 61.750 L 345.391 65 348.021 65 L 350.651 65 352.701 62.750 C 355.755 59.397, 356.859 56.820, 358.409 49.427 L 359.812 42.732 359.478 33.246 L 359.143 23.760 358.153 21.130 C 357.608 19.683, 356.883 17.224, 356.541 15.664 L 355.919 12.828 353.505 10.414 L 351.091 8 348.069 8 L 345.046 8 343.273 10.702 M 70.602 10.039 L 67.704 10.906 63.886 15.001 L 60.068 19.095 58.948 22.798 L 57.829 26.500 57.399 39.204 L 56.969 51.908 57.917 56.125 L 58.864 60.341 60.770 62.920 L 62.676 65.500 66.588 67.419 L 70.500 69.338 76.381 69.798 L 82.263 70.259 87.458 69.097 L 92.653 67.934 96.730 64.217 L 100.806 60.500 103.138 56 L 105.469 51.500 105.471 43.500 L 105.472 35.500 102.100 29 L 98.727 22.500 93.711 17.633 L 88.694 12.765 84.597 10.905 L 80.500 9.044 77 9.108 C 75.075 9.143, 72.196 9.562, 70.602 10.039 M 119.500 10.414 C 115.447 12.218, 112.625 14.860, 110.644 18.709 L 108.991 21.917 107.912 29.680 L 106.832 37.443 107.350 45.472 C 107.635 49.887, 108.172 54.925, 108.543 56.667 L 109.217 59.833 111.858 62.267 C 113.311 63.605, 116.422 65.443, 118.770 66.350 L 123.040 68 129.395 68 L 135.749 68 140.124 66.457 L 144.500 64.914 148.256 61.248 L 152.013 57.582 154.069 52.085 L 156.126 46.589 155.880 42.044 C 155.365 32.528, 150.870 23.822, 142.480 16.088 L 137.879 11.847 134.472 10.424 L 131.064 9 126.782 9.039 L 122.500 9.078 119.500 10.414 M 164.381 11.885 L 161.261 13.812 159.999 17.156 L 158.737 20.500 158.247 39.317 L 157.756 58.134 159.520 62.044 L 161.284 65.955 163.057 66.518 L 164.830 67.081 167.398 66.436 L 169.966 65.792 171.837 62.646 C 172.867 60.916, 174.509 56.575, 175.486 53 L 177.263 46.500 177.381 36 C 177.447 30.225, 177.174 23.260, 176.775 20.523 L 176.051 15.545 174.177 13.023 L 172.302 10.500 169.901 10.229 L 167.500 9.959 164.381 11.885 M 228.037 12.750 L 225.042 15.500 223.966 22.474 L 222.890 29.448 223.083 44.184 L 223.276 58.921 224.417 61.210 L 225.559 63.500 228.250 64.791 L 230.942 66.081 233.847 64.579 L 236.752 63.077 238.241 59.288 C 239.060 57.205, 240.328 53.025, 241.060 50 L 242.390 44.500 242.292 32.500 C 242.238 25.900, 241.959 19.600, 241.673 18.500 C 241.387 17.400, 241.119 15.955, 241.077 15.289 C 241.034 14.623, 240.015 13.160, 238.811 12.039 L 236.623 10 233.827 10 L 231.032 10 228.037 12.750 M 461.096 11.265 C 459.774 11.944, 457.864 13.625, 456.852 15 L 455.011 17.500 453.960 27.833 L 452.909 38.165 453.367 49.485 L 453.825 60.805 454.935 62.879 C 456.293 65.417, 459.089 67, 462.212 67 L 464.556 67 466.200 65.079 C 468.937 61.883, 469.755 59.794, 471.412 51.772 L 473 44.084 472.976 33.292 L 472.952 22.500 472.060 18.653 L 471.167 14.807 468.909 12.403 L 466.651 10 465.076 10.015 C 464.209 10.023, 462.418 10.585, 461.096 11.265 M 266.722 22.135 C 265.194 23.275, 263.242 25.566, 262.384 27.225 L 260.823 30.243 261.443 33.371 C 261.784 35.092, 262.690 37.328, 263.457 38.340 L 264.852 40.179 269.093 41.132 L 273.335 42.085 276.417 41.418 C 278.113 41.051, 280.726 39.885, 282.225 38.825 L 284.950 36.900 286.052 33.200 L 287.154 29.500 286.102 26.750 L 285.050 24.001 281.775 22.004 L 278.500 20.007 274 20.035 L 269.500 20.063 266.722 22.135 M 587.505 23.978 L 586.851 26.955 587.511 29.034 L 588.171 31.114 589.835 30.798 L 591.500 30.483 591.812 27.791 L 592.123 25.099 591.026 23.049 C 590.423 21.922, 589.531 21, 589.044 21 L 588.159 21 587.505 23.978 M 73.310 24.886 C 71.892 30.508, 73.117 50.481, 75.108 54.201 L 76.070 56 79.848 56 L 83.626 56 86.563 52.932 L 89.500 49.864 89.446 43.682 L 89.392 37.500 87.299 33.491 C 86.147 31.285, 83.599 27.910, 81.636 25.991 L 78.068 22.500 76.019 22.386 L 73.970 22.272 73.310 24.886 M 123.414 23.140 L 122.709 24.279 122.867 33.890 C 123.035 44.105, 123.699 49.407, 125.167 52.250 L 126.070 54 129.601 54 L 133.131 54 135.150 52.920 L 137.169 51.839 138.585 48.452 L 140 45.064 140 41.728 L 140 38.393 137.516 33.446 C 136.149 30.726, 133.652 27.038, 131.965 25.250 L 128.899 22 126.508 22 L 124.118 22 123.414 23.140 M 27.402 24.395 C 27.108 25.162, 27.009 27.524, 27.183 29.645 L 27.500 33.500 29.623 33.803 L 31.745 34.106 32.382 32.446 L 33.019 30.786 31.971 26.893 L 30.923 23 29.430 23 L 27.937 23 27.402 24.395" stroke="none" fill="#fc9c04" fill-rule="evenodd"/></svg>